<?xml version="1.0" encoding="UTF-8"?><svg id="a" xmlns="http://www.w3.org/2000/svg" xmlns:xlink="http://www.w3.org/1999/xlink" viewBox="0 0 1600 900"><defs><style>.g{fill:url(#b);}.h{fill:none;}.i{fill:rgba(255,255,255,.1);}.i,.j{stroke:#8c175b;stroke-miterlimit:10;stroke-width:3.8px;}.j{fill:url(#f);}.k{clip-path:url(#d);}</style><linearGradient id="b" x1="800" y1="0" x2="800" y2="900" gradientTransform="matrix(1, 0, 0, 1, 0, 0)" gradientUnits="userSpaceOnUse"><stop offset="0" stop-color="#5b0f3e"/><stop offset="1" stop-color="#330025"/></linearGradient><clipPath id="d"><rect id="e" class="h" y="0" width="1600" height="900"/></clipPath><linearGradient id="f" x1="-55.15" y1="399.68" x2="1661.71" y2="399.68" gradientTransform="matrix(1, 0, 0, 1, 0, 0)" gradientUnits="userSpaceOnUse"><stop offset="0" stop-color="#fff" stop-opacity=".1"/><stop offset=".6" stop-color="#fff" stop-opacity=".1"/><stop offset="1" stop-color="#fff" stop-opacity=".05"/></linearGradient></defs><rect id="c" class="g" width="1600" height="900"/><g class="k"><g><path class="i" d="M1480.31,283.99c-.28,.18-.55,.46-.83,.65L-60.12,1362.66v702.34L1656.15,863.22l5.56-933.11c0,142.87-74.64,274.46-181.4,353.88Z"/><path class="i" d="M1658.09-931.43v367.48L104.31,523.98C3.16,603.93-61.71,727.11-61.71,865.64V-63.57L1243.13-977.24h349.81c32.48,.83,59.23,20.27,65.15,45.81Z"/><path class="j" d="M1372.85,1162.1l-503.86,352.79,384.81,269.47h338.5c10.3,0,20.04-1.86,28.77-5.38,7.42-2.6,14.1-6.5,19.67-11.14l.19-.19c12.53-10.3,20.23-24.5,20.23-40.27v-363.37l-288.3-201.91ZM302.76-320.71L-55.15-571.34v-356.69c0-31.46,30.9-56.97,68.85-56.97H361.76l444.84,311.49L302.76-320.71ZM1319.96,396.38L868.99,80.71l503.86-352.79,288.86,202.19c0,143.55-69.41,270.86-176.67,350.66-.28,.19-.56,.46-.84,.65l-164.22,114.98-.02-.02ZM295.74,1113.57L-53.44,869.06c21.44-101.7,78.32-190.22,157.19-252.58l244.88-171.48,450.97,315.77-503.85,352.79Z"/></g></g></svg>